HIERARCHY
ROOT Hips
{
	OFFSET 0.00000 0.00000 0.00000
	CHANNELS 6 Xposition Yposition Zposition Yrotation Zrotation Xrotation 
	JOINT Lumbar
	{
		OFFSET 0 0 0
		CHANNELS 3 Zrotation Xrotation Yrotation
		JOINT Neck
		{
			OFFSET 0.00 0.2701 0.00
			CHANNELS 3 Zrotation Xrotation Yrotation
			End Site
			{
				OFFSET 0.00 0.1379 0.00
			}
		}
		JOINT RightShoulder
		{
			OFFSET 0.0119 0.2289 0.1181
			CHANNELS 3 Zrotation Xrotation Yrotation
			JOINT RightElbow
			{
				OFFSET 0.00 -0.1475 0.00
				CHANNELS 2 Zrotation Yrotation
				JOINT RightWrist
				{
					OFFSET 0.00 -0.1605 0.00
					CHANNELS 2 Zrotation Xrotation
					End Site
					{
						OFFSET 0.0040 -0.1068 0.0006
					}
				}
			}
		}
		JOINT LeftShoulder
		{
			OFFSET 0.0119 0.2289 -0.1181
			CHANNELS 3 Zrotation Xrotation Yrotation
			JOINT LeftElbow
			{
				OFFSET 0.00 -0.1475 0.00
				CHANNELS 2 Zrotation Yrotation
				JOINT LeftWrist
				{
					OFFSET 0.00 -0.1605 0.00
					CHANNELS 2 Zrotation Xrotation
					End Site
					{
						OFFSET 0.0040 -0.1068 -0.0006
					}
				}
			}
		}
	}
	JOINT RightHip
	{
		OFFSET 0.0316 -0.0424 0.0458
		CHANNELS 3 Zrotation Xrotation Yrotation
		JOINT RightKnee
		{
			OFFSET 0.00 -0.2438 0.00
			CHANNELS 1 Zrotation
			JOINT RightAnkle
			{
				OFFSET 0.00 -0.2449 0.00
				CHANNELS 3 Zrotation Xrotation Yrotation
				End Site
				{
					OFFSET 0.1237 -0.0542 0.0051
				}
			}
		}
	}
	JOINT LeftHip
	{
		OFFSET 0.0316 -0.0424 -0.0458
		CHANNELS 3 Zrotation Xrotation Yrotation
		JOINT LeftKnee
		{
			OFFSET 0.00 -0.2438 0.00
			CHANNELS 1 Zrotation
			JOINT LeftAnkle
			{
				OFFSET 0.00 -0.2449 0.00
				CHANNELS 3 Zrotation Xrotation Yrotation
				End Site
				{
					OFFSET 0.1237 -0.0542 -0.0051
				}
			}
		}
	}
}
MOTION
Frames: 27
Frame Time: 0.02
-0.01023 -0.00528 0.00511 71.52359 -26.13384 -19.60187 40.97835 6.21511 -15.74555 -17.50992 9.68892 -1.02529 -12.83753 -16.24274 -2.525 32.92055 82.44247 -1.28697 2.6261 -14.5301 21.55043 -15.06781 53.52263 -83.86811 -0.44613 -0.62509 44.78297 -6.47738 -10.54334 -18.12687 -10.05055 1.34023 -1.7425 30.95676 16.72437 12.55068 -30.42223 -6.3109 2.04231 3.20571
-0.01388 -0.00572 0.00828 71.00077 -25.41852 -19.00418 40.24545 5.50013 -15.40347 -17.42499 9.17486 -1.05846 -13.43061 -15.85037 -2.11592 32.73522 83.65533 -0.78721 2.7713 -14.64908 21.6423 -14.96145 52.62481 -83.90743 -0.33476 -0.63855 44.71358 -6.75728 -9.90196 -18.52468 -10.0569 1.04892 -1.88463 30.38873 15.52265 11.51657 -29.92171 -6.4393 2.1993 3.28993
-0.01753 -0.00616 0.01144 70.47934 -24.70509 -18.40839 39.51458 4.78724 -15.06224 -17.34047 8.66171 -1.09152 -14.0235 -15.45916 -1.70701 32.55123 84.86284 -0.28894 2.91521 -14.76786 21.73324 -14.8543 51.72723 -83.94664 -0.22383 -0.65212 44.64347 -7.03614 -9.26311 -18.92156 -10.06318 0.7587 -2.02622 29.82243 14.32468 10.48647 -29.4225 -6.56731 2.35576 3.37386
-0.02117 -0.00659 0.0146 69.95808 -23.99191 -17.81255 38.78389 4.07445 -14.7212 -17.25582 8.14912 -1.12459 -14.61499 -15.06798 -1.29901 32.36657 86.07165 0.2093 3.0598 -14.88647 21.82474 -14.74813 50.83176 -83.98584 -0.11279 -0.66544 44.57415 -7.31514 -8.62382 -19.3182 -10.06951 0.46832 -2.1679 29.25616 13.12668 9.45574 -28.92348 -6.69532 2.51226 3.45781
-0.02482 -0.00703 0.01777 69.43559 -23.27697 -17.21479 38.05128 3.35962 -14.37934 -17.17071 7.6359 -1.15775 -15.20614 -14.67567 -0.89123 32.18036 87.28657 0.70901 3.20607 -15.0053 21.91737 -14.64307 49.93705 -84.02514 -0.00135 -0.67895 44.50588 -7.59524 -7.98172 -19.71563 -10.07591 0.17677 -2.31015 28.68813 11.92488 8.42052 -28.42327 -6.82372 2.6693 3.54205
-0.02845 -0.00747 0.02092 68.91642 -22.56678 -16.62315 37.32413 2.65086 -14.03941 -17.08746 7.12295 -1.19061 -15.80269 -14.28682 -0.47998 32.0011 88.47853 1.20423 3.34509 -15.12401 22.00475 -14.53146 49.03352 -84.06417 0.10845 -0.69282 44.4319 -7.87151 -7.34969 -20.11133 -10.08189 -0.11066 -2.45036 28.12548 10.73501 7.40115 -27.92617 -6.95092 2.82455 3.62534
-0.03212 -0.00791 0.0241 68.39102 -21.84782 -16.0199 36.58675 1.93069 -13.69611 -17.00049 6.60998 -1.22404 -16.3875 -13.89138 -0.07619 31.80784 89.71487 1.70793 3.49831 -15.24262 22.10268 -14.43345 48.14863 -84.10372 0.22161 -0.70507 44.36953 -8.15514 -6.69832 -20.51013 -10.08878 -0.406 -2.59448 27.55272 9.5226 6.35151 -27.42334 -7.08037 2.98321 3.71045
-0.03575 -0.00835 0.02725 67.87159 -21.13691 -15.42726 35.85892 1.22098 -13.35569 -16.91708 6.09708 -1.25695 -16.98353 -13.50212 0.33452 31.62789 90.91122 2.20382 3.63887 -15.36171 22.19071 -14.32237 47.24674 -84.14274 0.33137 -0.72042 44.29637 -8.43206 -6.06439 -20.90597 -10.09474 -0.69417 -2.73506 26.98914 8.3307 5.32891 -26.92586 -7.20778 3.13878 3.7939
-0.03935 -0.00877 0.03039 67.35831 -20.43561 -14.84773 35.14193 0.52399 -13.01949 -16.83754 5.58372 -1.28923 -17.59224 -13.11985 0.75391 31.46268 92.0552 2.69033 3.76211 -15.47993 22.26725 -14.19715 46.32251 -84.18131 0.43821 -0.73322 44.21018 -8.70055 -5.45318 -21.29878 -10.09992 -0.97315 -2.8711 26.43711 7.16444 4.34254 -26.43442 -7.33264 3.29042 3.87525
-0.04317 -0.00925 0.03363 66.80621 -19.67832 -14.19318 34.36003 -0.24638 -12.66113 -16.73429 5.07138 -1.32515 -18.12492 -12.69565 1.12402 31.20806 93.48998 3.23134 3.97946 -15.59878 22.41176 -14.15878 45.52202 -84.2231 0.56554 -0.74164 44.19941 -9.01684 -4.71543 -21.71084 -10.11063 -1.30374 -3.03265 25.81958 5.85237 3.15722 -25.90671 -7.47198 3.46421 3.96847
-0.0465 -0.00962 0.03665 66.33823 -19.03971 -13.6967 33.71678 -0.86175 -12.34821 -16.68194 4.55801 -1.35339 -18.81977 -12.36104 1.59754 31.14498 94.31804 3.65696 4.00185 -15.71904 22.41172 -13.9338 44.46388 -84.25766 0.64729 -0.77145 44.02936 -9.23274 -4.24197 -22.08105 -10.10901 -1.52624 -3.14074 25.3397 4.8469 2.38556 -25.45652 -7.58089 3.59156 4.03679
-0.04853 -0.00964 0.03909 66.08467 -18.72622 -13.64062 33.44457 -1.0487 -12.17189 -16.76346 4.03251 -1.36035 -19.94923 -12.26505 2.36231 31.58822 93.4086 3.76634 3.45413 -15.8215 22.02055 -13.22009 42.66413 -84.2759 0.62279 -0.75701 43.41981 -9.16599 -4.52398 -22.3453 -10.07868 -1.44274 -3.0976 25.24696 4.70111 2.81355 -25.21376 -7.60429 3.58749 4.03465
-0.05005 -0.00954 0.04129 65.91846 -18.5327 -13.74262 33.31409 -1.08006 -12.03912 -16.89712 3.50795 -1.35965 -21.2427 -12.26021 3.22913 32.22671 91.90335 3.75985 2.71706 -15.9298 21.48344 -12.31548 40.61314 -84.28621 0.54949 -0.78046 42.65155 -8.99931 -5.06636 -22.56562 -10.03513 -1.25236 -3.00155 25.29168 4.86102 3.64715 -25.05047 -7.59733 3.53731 4.0078
-0.05178 -0.0095 0.04356 65.72321 -18.28375 -13.76715 33.12393 -1.18532 -11.87848 -17.01075 2.98872 -1.36258 -22.46892 -12.21859 4.04487 32.78929 90.71826 3.80605 2.08963 -16.049 21.00918 -11.48191 38.69833 -84.29792 0.48566 -0.85721 41.95648 -8.88363 -5.46913 -22.80055 -9.99412 -1.11717 -2.93269 25.26609 4.86747 4.25018 -24.85346 -7.60581 3.51109 3.99381
-0.0536 -0.00943 0.04603 65.48381 -18.036 -13.81328 32.91097 -1.27896 -11.7515 -17.10917 2.44418 -1.36485 -23.6679 -12.15817 4.88235 33.30087 89.32366 3.85161 1.36252 -16.10922 20.54827 -10.7109 36.68568 -84.31905 0.47352 -0.64735 41.25335 -8.74604 -5.95992 -23.05905 -9.96719 -0.95423 -2.85061 25.26981 4.9308 5.04016 -24.64383 -7.60802 3.47295 3.97336
-0.0551 -0.00941 0.048 65.35625 -17.81778 -13.855 32.78299 -1.35723 -11.56539 -17.25146 1.95383 -1.36672 -24.95848 -12.15773 5.69666 33.96153 88.22393 3.87136 0.7978 -16.29592 20.02624 -9.7686 34.82285 -84.3185 0.3445 -1.02964 40.53348 -8.62804 -6.33205 -23.25671 -9.90845 -0.82326 -2.7833 25.25018 4.9545 5.54825 -24.48266 -7.61517 3.44763 3.9599
-0.05587 -0.00955 0.04868 65.52455 -17.61902 -13.81688 32.81912 -1.4562 -11.19907 -17.50306 1.60281 -1.36909 -26.4945 -12.30748 6.44045 35.0141 88.09864 3.84807 0.73333 -16.81065 19.3612 -8.36554 33.38827 -84.26193 -0.11503 -3.15672 39.7698 -8.61037 -6.28468 -23.30969 -9.75953 -0.81178 -2.77197 25.08484 4.73546 5.07584 -24.40507 -7.65194 3.47893 3.97724
-0.05632 -0.00973 0.04885 65.80195 -17.45069 -13.77299 32.94114 -1.54144 -10.77258 -17.79666 1.30858 -1.3714 -28.10999 -12.51348 7.15475 36.20413 88.29479 3.8044 0.83904 -17.45566 18.64193 -6.80421 32.12176 -84.18359 -0.68663 -5.85657 39.00021 -8.61277 -6.11288 -23.30124 -9.58 -0.83549 -2.77703 24.89777 4.47492 4.32198 -24.37781 -7.6934 3.52315 4.00159
-0.05689 -0.00989 0.04924 66.0224 -17.29143 -13.75228 33.04908 -1.61529 -10.37812 -18.07058 0.99447 -1.37392 -29.66875 -12.68879 7.86939 37.31348 88.32607 3.7682 0.86175 -18.05463 17.95358 -5.3367 30.80948 -84.11382 -1.19422 -8.21567 38.25907 -8.59051 -6.01794 -23.31191 -9.41826 -0.83951 -2.77299 24.75476 4.27403 3.76788 -24.34948 -7.72684 3.55465 4.01897
-0.05755 -0.01007 0.0497 66.27225 -17.04473 -13.6554 33.06231 -1.75403 -9.96664 -18.34943 0.65374 -1.37538 -31.32393 -12.88754 8.63935 38.50875 88.38864 3.72915 0.89681 -18.60024 17.23218 -3.76584 29.36015 -84.04883 -1.75948 -10.91419 37.40939 -8.62646 -5.85125 -23.35566 -9.24005 -0.85445 -2.77362 24.48179 3.91935 2.93624 -24.23772 -7.78312 3.61243 4.05091
-0.05795 -0.01022 0.04987 66.49157 -16.97946 -13.70734 33.28423 -1.76155 -9.57418 -18.62653 0.38399 -1.37914 -32.79045 -13.05138 9.29 39.55236 88.50427 3.70067 0.95524 -19.28532 16.57051 -2.38048 28.23824 -83.96949 -2.22968 -13.04324 36.77917 -8.55215 -5.79489 -23.31966 -9.08858 -0.85763 -2.7697 24.46056 3.86146 2.59595 -24.30334 -7.79453 3.62041 4.05522
-0.05777 -0.01026 0.04937 66.54819 -17.46305 -14.22705 34.12328 -1.36532 -9.2625 -18.89496 0.27919 -1.38914 -33.75356 -13.08969 9.58105 40.16608 88.37773 3.63386 0.98071 -20.34521 16.07219 -1.50086 27.99278 -83.85055 -2.41698 -13.43883 36.82036 -8.12546 -6.12616 -23.05065 -9.02277 -0.80963 -2.74444 25.24406 4.71686 3.80708 -24.91014 -7.67075 3.47681 3.97535
-0.05732 -0.01027 0.04857 66.57919 -18.11805 -14.88647 35.15813 -0.84593 -8.96942 -19.15873 0.24738 -1.40151 -34.51554 -13.0933 9.75914 40.61688 88.33969 3.58898 1.03258 -21.53672 15.63968 -0.82226 28.0706 -83.71917 -2.50293 -13.24287 37.07195 -7.59474 -6.56224 -22.7083 -8.98426 -0.75097 -2.71519 26.26281 5.85666 5.49846 -25.68228 -7.50358 3.28474 3.86861
-0.05697 -0.01029 0.04788 66.6558 -18.65667 -15.44368 36.06078 -0.41395 -8.65855 -19.42012 0.193 -1.41294 -35.3455 -13.12243 10.01341 41.12697 88.48613 3.58668 1.11328 -22.654 15.18714 -0.0829 27.99181 -83.59669 -2.63077 -13.33427 37.18545 -7.14156 -6.91381 -22.41878 -8.93038 -0.70442 -2.6912 27.10313 6.80803 6.88348 -26.33546 -7.36324 3.12245 3.77846
-0.05672 -0.01033 0.04729 66.59424 -19.35558 -16.16064 37.14483 0.14844 -8.38448 -19.70193 0.09454 -1.42384 -36.28049 -13.11254 10.16335 41.70573 87.75515 3.37626 1.03823 -23.83739 14.68967 0.78912 27.95628 -83.45879 -2.78124 -13.3773 37.47594 -6.56505 -7.41441 -22.04731 -8.88764 -0.62853 -2.6533 28.23934 8.00206 8.62451 -27.17192 -7.19355 2.92858 3.67043
-0.0562 -0.01031 0.04644 66.81124 -19.76509 -16.58262 37.90163 0.47185 -8.03964 -19.93965 0.10613 -1.43632 -36.94384 -13.17481 10.50223 42.09911 88.79286 3.58661 1.27813 -24.91177 14.3037 1.33771 27.90946 -83.35155 -2.85769 -13.3608 37.45039 -6.2157 -7.6342 -21.82672 -8.82896 -0.61056 -2.64311 28.82216 8.76614 9.74971 -27.66964 -7.07399 2.78792 3.59269
-0.05509 -0.01014 0.04501 67.81831 -19.29705 -16.11667 37.66096 0.07358 -7.48957 -20.05558 0.3894 -1.45326 -36.93886 -13.44584 11.40578 42.03488 95.36268 5.11498 2.50044 -25.65919 14.19699 1.01737 27.71707 -83.32114 -2.76593 -13.4308 36.47884 -6.56002 -7.02668 -22.0689 -8.71654 -0.75692 -2.71143 27.76054 8.20916 8.98892 -27.15289 -7.10913 2.81357 3.60936
